<svg xmlns="http://www.w3.org/2000/svg" clip-rule="evenodd" fill-rule="evenodd" stroke-linecap="round" stroke-linejoin="round" stroke-miterlimit="1.5" version="1.1" viewBox="0 0 4961 3508"> <path d="m1870.6 1062.5c-79.87 719.87-371.73 1012.5-354.15 1141.7 14.87 109.3 329.83 409.51 518.22 564.43 356.64-26.15 825.11 183.91 896.68 120.42 151.23-63.75-3.37-269.74 399.24-767.24 31.85-39.36 59.66-79.63-2.89-172.12-201.01-219.65-275.21-472.16-251.42-778.04 0 0-421.99-615.01-557.84-626.83-130.93-11.397-647.84 517.65-647.84 517.65z" fill="none"/> <clipPath id="a"> <path d="m1870.6 1062.5c-79.87 719.87-371.73 1012.5-354.15 1141.7 14.87 109.3 329.83 409.51 518.22 564.43 356.64-26.15 825.11 183.91 896.68 120.42 151.23-63.75-3.37-269.74 399.24-767.24 31.85-39.36 59.66-79.63-2.89-172.12-201.01-219.65-275.21-472.16-251.42-778.04 0 0-421.99-615.01-557.84-626.83-130.93-11.397-647.84 517.65-647.84 517.65z"/> </clipPath> <g clip-path="url(#a)" stroke="#231f20" stroke-width="1px"> <path d="m2005 2762.7c149.7-231.85 229.87-481.3 157.38-761.42 405.26-112.71 743.87-25.96 945.42 448.02l147.96 320.67-231.92 276.52-776.57 1.82-339.53-159.34 97.26-126.27z" fill="url(#e)"/> <path d="m2310.5 498.78-599.22 440.49 72.37 577.89c205.62 119.75 330.84 282.72 375.32 485.4 402.61-88.13 747.87-19.41 951.62 436.46l343.09 61.27 115.02-394.72-282.89-691.45-227.78-772.63-611.26-234.26-136.27 91.545z" fill="url(#d)"/> <path d="m1711.3 1483.6c630.61 263.62 592.75 789.39 308.47 1276.1l-308.47 141.35s-395.72-613.96-422.01-616.46 94.05-530.66 94.05-530.66l327.96-270.33z" fill="url(#c)"/> <path d="m2561.8 449.83c23.93-11.771 121.95 277.3 78.64 399.72-233.14 450.29-253.76 747.81-86.34 1128 244.4 33.85 427.89 202.15 558.22 482.85l219.89 155.13 262.95-375.13-100.55-788.19-603.04-882.92-329.77-119.49z" fill="url(#b)"/> </g> <path d="m1870.6 1062.5c-79.87 719.87-371.73 1012.5-354.15 1141.7 14.87 109.3 329.83 409.51 518.22 564.43 356.64-26.15 825.11 183.91 896.68 120.42 151.23-63.75-3.37-269.74 399.24-767.24 31.85-39.36 59.66-79.63-2.89-172.12-201.01-219.65-275.21-472.16-251.42-778.04 0 0-421.99-615.01-557.84-626.83-130.93-11.397-647.84 517.65-647.84 517.65z" fill="none" stroke="#231f20" stroke-width="1px"/> <defs> <linearGradient id="e" x2="1" gradientTransform="matrix(665.81 770.81 -770.81 665.81 2264.2 2071.2)" gradientUnits="userSpaceOnUse"> <stop stop-color="#654a9e" offset="0"/> <stop stop-color="#a494c7" offset="1"/> </linearGradient> <linearGradient id="d" x2="1" gradientTransform="matrix(-254.74 1294.8 -1294.8 -254.74 2480.3 611.78)" gradientUnits="userSpaceOnUse"> <stop stop-color="#9f89c0" offset="0"/> <stop stop-color="#e3daec" offset="1"/> </linearGradient> <linearGradient id="c" x2="1" gradientTransform="matrix(185.57 1058.8 -1058.8 185.57 1815.8 1592.6)" gradientUnits="userSpaceOnUse"> <stop stop-color="#644da0" offset="0"/> <stop stop-color="#a496c8" offset="1"/> </linearGradient> <linearGradient id="b" x2="1" gradientTransform="matrix(400.6 1545.4 -1545.4 400.6 2711.8 757.23)" gradientUnits="userSpaceOnUse"> <stop stop-color="#735ba7" offset="0"/> <stop stop-color="#a38cc2" offset="1"/> </linearGradient> </defs> </svg>
